# xmcd
#
# Track frame offsets: 
#        150
#        16167
#        30367
#        50340
#        64947
#        84577
#        102022
#        131765
#        146832
#        160582
#        176377
#        197125
#        208832
#        227247
#
# Disc length: 3265 seconds
#
# Revision: 0
# Processed by: cddbd v1.5.2PL0 Copyright (c) Steve Scherf et al.
# Submitted via: ExactAudioCopy v0.99pb4
#
DISCID=b90cbf0e
DTITLE=Billy Joel and Duke Ellington - Family affair
DYEAR=1992
DGENRE=Blues
TTITLE0=If I only had the words
TTITLE1=Somewhere along the line
TTITLE2=Temptation
TTITLE3=Emily
TTITLE4=I've loved these days
TTITLE5=Leave a tender moment alone
TTITLE6=New York state of mind
TTITLE7=Things ain't what they used to be
TTITLE8=Just squeeze me
TTITLE9=Sophisticated lady
TTITLE10=Prelude to a kiss
TTITLE11=I'm beginning to see the light
TTITLE12=In a sentimental mood
TTITLE13=Satin doll
EXTD=
EXTT0=
EXTT1=
EXTT2=
EXTT3=
EXTT4=
EXTT5=
EXTT6=
EXTT7=
EXTT8=
EXTT9=
EXTT10=
EXTT11=
EXTT12=
EXTT13=
PLAYORDER=
